<svg width="68" height="20" viewBox="0 0 68 20" fill="none" xmlns="http://www.w3.org/2000/svg">
<path d="M57.5287 18.0495C57.8474 18.1642 58.2106 18.2216 58.6186 18.2216C59.001 18.2216 59.3005 18.126 59.5172 17.9348C59.7339 17.7563 59.9379 17.4121 60.1291 16.9023L60.4924 15.9462L56.305 6.34766H58.8289L61.5631 13.5179L64.0679 6.34766H66.4389L62.4809 16.386C62.2515 16.9724 62.0348 17.4886 61.8308 17.9348C61.6269 18.3809 61.3974 18.757 61.1425 19.0629C60.8875 19.3688 60.5816 19.5983 60.2247 19.7512C59.8805 19.9169 59.4535 19.9998 58.9436 19.9998C58.6122 19.9998 58.3063 19.9743 58.0258 19.9233C57.7454 19.8851 57.4458 19.815 57.1271 19.713L57.5287 18.0495Z" fill="white"/>
<path d="M53.354 11.1086C53.354 10.484 53.2838 9.96139 53.1436 9.54074C53.0162 9.10734 52.8313 8.76954 52.5891 8.52734C52.3597 8.2724 52.0856 8.09394 51.7669 7.99197C51.461 7.87724 51.136 7.81988 50.7918 7.81988C49.9887 7.81988 49.3641 8.10669 48.918 8.68031C48.4846 9.25393 48.2679 10.1271 48.2679 11.2998C48.2679 11.9372 48.3252 12.4789 48.44 12.9251C48.5674 13.3712 48.7395 13.7345 48.9562 14.015C49.1857 14.2954 49.447 14.4994 49.7402 14.6268C50.0333 14.7543 50.352 14.818 50.6962 14.818C51.4865 14.818 52.1239 14.5631 52.6082 14.0532C53.1054 13.5306 53.354 12.7211 53.354 11.6249V11.1086ZM53.3731 14.9136C52.9652 15.4745 52.4999 15.8952 51.9773 16.1756C51.4674 16.456 50.8683 16.5963 50.1799 16.5963C49.4661 16.5963 48.8479 16.4688 48.3252 16.2138C47.8026 15.9589 47.3692 15.602 47.025 15.1431C46.6809 14.6714 46.4196 14.1169 46.2411 13.4796C46.0754 12.8295 45.9925 12.1157 45.9925 11.3381C45.9925 10.6115 46.0818 9.9359 46.2602 9.31129C46.4387 8.67394 46.7 8.12581 47.0442 7.66691C47.3883 7.19527 47.809 6.81923 48.3061 6.5388C48.816 6.25836 49.4024 6.1054 50.0652 6.0799C50.1927 6.06715 50.3202 6.06715 50.4476 6.0799C50.5751 6.0799 50.7089 6.08627 50.8492 6.09902C51.2953 6.15001 51.7223 6.27748 52.1302 6.48143C52.5509 6.67264 52.9524 6.99769 53.3348 7.45659V2.63818H55.4955V16.2903H53.3731V14.9136Z" fill="white"/>
<path d="M41.0052 11.6439C40.3551 11.6821 39.8261 11.7522 39.4182 11.8542C39.023 11.9562 38.7171 12.09 38.5004 12.2557C38.2837 12.4087 38.1371 12.5935 38.0606 12.8102C37.9969 13.0142 37.965 13.2372 37.965 13.4794C37.965 13.9128 38.0988 14.2506 38.3665 14.4928C38.647 14.735 39.0549 14.8561 39.5902 14.8561C40.5463 14.8561 41.2537 14.6139 41.7126 14.1295C42.1715 13.6451 42.401 12.9887 42.401 12.1601V11.5865L41.0052 11.6439ZM42.4392 14.99C42.0695 15.4361 41.617 15.8058 41.0817 16.099C40.5463 16.3921 39.8962 16.5387 39.1314 16.5387C38.6597 16.5387 38.2199 16.475 37.812 16.3475C37.4041 16.2328 37.0472 16.0544 36.7413 15.8122C36.4481 15.57 36.2123 15.264 36.0338 14.8944C35.8681 14.512 35.7852 14.0658 35.7852 13.5559C35.7852 12.8676 35.9382 12.3131 36.2441 11.8924C36.5501 11.459 36.9452 11.1212 37.4296 10.879C37.9268 10.6368 38.4813 10.4711 39.0931 10.3819C39.705 10.2799 40.3168 10.2162 40.9287 10.1907L42.401 10.1142V9.69355C42.401 8.94147 42.2161 8.42521 41.8465 8.14477C41.4896 7.85159 41.0179 7.705 40.4316 7.705C39.756 7.705 39.2524 7.81972 38.921 8.04917C38.6023 8.27862 38.392 8.61004 38.29 9.04345L36.3015 8.83312C36.48 7.86434 36.9197 7.15687 37.6208 6.71073C38.3219 6.26458 39.2843 6.0415 40.508 6.0415C41.2984 6.0415 41.9485 6.14348 42.4583 6.34743C42.981 6.55139 43.3952 6.83182 43.7012 7.18874C44.0071 7.54566 44.2174 7.97269 44.3322 8.46983C44.4596 8.95422 44.5234 9.48959 44.5234 10.076V16.2902H42.4392V14.99Z" fill="white"/>
<path d="M32.1658 6.3473V7.81959C32.51 7.29696 32.9243 6.89543 33.4087 6.61499C33.8931 6.33455 34.4093 6.19434 34.9574 6.19434C35.1741 6.19434 35.3526 6.20071 35.4928 6.21346C35.6458 6.2262 35.7924 6.24532 35.9326 6.27082L35.684 8.25937C35.5438 8.22112 35.3908 8.19563 35.2251 8.18288C35.0594 8.17014 34.8873 8.16376 34.7089 8.16376C34.301 8.16376 33.944 8.23387 33.6381 8.37409C33.3322 8.50156 33.0709 8.67365 32.8542 8.89035C32.6502 9.10705 32.4909 9.35562 32.3762 9.63605C32.2742 9.90374 32.2232 10.1778 32.2232 10.4582V16.29H30.0626V6.3473H32.1658Z" fill="white"/>
<path d="M24.5165 4.64585H20.1952V2.63818H31.1322V4.64585H26.8301V16.2903H24.5165V4.64585Z" fill="white"/>
<path d="M7.44824 0H0V19.2318H7.44824V15.4408H5.4143V3.79097H7.44824V0Z" fill="white"/>
<path d="M8.46964 0H15.9179V19.2318H8.46964V15.4408H10.5036V3.79097H8.46964V0Z" fill="white"/>
</svg>
